<?xml version="1.0" standalone="no"?>
<!DOCTYPE svg PUBLIC "-//W3C//DTD SVG 20010904//EN"
 "http://www.w3.org/TR/2001/REC-SVG-20010904/DTD/svg10.dtd">
<svg version="1.0" xmlns="http://www.w3.org/2000/svg"
 width="1217.000000pt" height="816.000000pt" viewBox="0 0 1217.000000 816.000000"
 preserveAspectRatio="xMidYMid meet">

<g transform="translate(0.000000,816.000000) scale(0.100000,-0.100000)"
fill="#000000" stroke="none">
<path d="M3400 5185 l0 -1405 518 -2 517 -3 0 -290 0 -290 -517 -3 -518 -2 0
-205 0 -205 200 0 200 0 0 -370 0 -370 1915 0 1915 0 0 245 0 245 295 0 295 0
0 295 0 295 254 0 254 0 -3 263 c-1 144 -3 925 -4 1735 l-1 1472 -2660 0
-2660 0 0 -1405z m1898 729 c371 -66 687 -342 771 -673 22 -89 31 -109 31 -71
0 53 45 184 89 259 67 117 128 189 219 262 204 163 416 239 668 239 293 0 565
-119 777 -339 151 -157 222 -310 247 -535 9 -79 2 -225 -14 -312 -27 -140
-101 -341 -184 -498 -44 -85 -63 -111 -82 -116 -42 -11 -1110 -23 -1110 -12 0
12 -319 734 -330 745 -4 5 -37 -79 -73 -185 -227 -673 -323 -945 -328 -935 -4
7 -83 251 -177 542 -94 292 -233 722 -308 958 -76 235 -141 427 -144 427 -4 0
-84 -225 -178 -500 -95 -275 -207 -602 -251 -728 l-79 -227 -275 -3 -274 -2
-36 72 c-69 145 -85 185 -116 293 -44 154 -61 260 -61 384 0 124 11 195 47
305 75 230 254 425 505 550 136 68 261 105 388 115 108 8 160 6 278 -15z m327
-1789 c57 -176 140 -435 185 -575 154 -481 164 -510 172 -495 5 8 87 247 184
532 96 285 189 558 206 606 l31 88 86 -196 86 -197 440 7 c242 4 493 8 558 9
64 2 117 2 117 0 0 -1 -35 -48 -78 -103 -277 -355 -701 -744 -1165 -1068 -158
-110 -347 -233 -357 -233 -10 0 -358 232 -464 310 -117 85 -327 253 -451 361
-123 106 -370 349 -451 443 -32 39 -75 88 -95 110 -37 43 -98 122 -162 213
l-37 53 280 0 281 0 14 33 c13 32 39 108 229 662 53 154 99 287 102 295 6 14
48 -110 289 -855z"/>
<path d="M1995 6056 c-16 -8 -86 -71 -155 -140 l-125 -126 130 -130 130 -130
123 123 c128 126 162 175 162 237 0 69 -52 146 -113 169 -39 15 -116 13 -152
-3z"/>
<path d="M825 4878 c-75 -27 -125 -97 -125 -174 0 -44 28 -111 56 -136 46 -41
86 -48 274 -48 l180 0 0 185 0 185 -177 -1 c-98 0 -191 -5 -208 -11z"/>
<path d="M2140 4650 c0 -203 5 -226 63 -277 32 -28 90 -53 122 -53 30 0 88 24
116 47 60 51 69 87 69 286 l0 177 -185 0 -185 0 0 -180z"/>
</g>
</svg>
