<svg width="509.89996337890625px" height="122px" xmlns="http://www.w3.org/2000/svg" viewBox="-4.949981689453125 14 509.89996337890625 122" style="background: rgba(0, 0, 0, 0);" preserveAspectRatio="xMidYMid"><defs><filter id="editing-extrude-glow"><feFlood flood-color="#333333" result="flood-1"></feFlood><feMorphology operator="erode" radius="1" in="SourceAlpha" result="erode"></feMorphology><feComposite operator="in" in="flood-1" in2="erode" result="comp1"></feComposite><feConvolveMatrix order="3,3" divisor="1" in="comp1" result="convolve" kernelMatrix="0 0 0 1 1 1 0 0 0"></feConvolveMatrix><feOffset dx="-3" dy="0" in="convolve" result="extrude"></feOffset><feComposite operator="in" in="flood-1" in2="extrude" result="comp-extrude"></feComposite><feFlood flood-color="#000000" result="flood-2"></feFlood><feComposite operator="in" in="flood-2" in2="SourceAlpha" result="comp2"></feComposite><feMorphology operator="dilate" radius="1" in="comp2" result="dilate"></feMorphology><feOffset dx="-4.5" dy="0" in="dilate" result="offset"></feOffset><feGaussianBlur in="offset" stdDeviation="5.8" result="blur"></feGaussianBlur><feComponentTransfer in="blur" result="shadow"><feFuncA type="linear" slope="0.8" intercept="-0.2"></feFuncA></feComponentTransfer><feMerge><feMergeNode in="shadow"></feMergeNode><feMergeNode in="comp-extrude"></feMergeNode><feMergeNode in="SourceGraphic"></feMergeNode></feMerge></filter></defs><g filter="url(#editing-extrude-glow)"><g transform="translate(70.84262669086456, 104.76000022888184)"><path d="M6.53 0L-0.83 0L10.75-42.24L24.13-42.24L27.07-18.11L38.98-42.24L50.18-42.24L51.33-10.62L51.33-10.62Q51.58-4.35 54.66-2.43L54.66-2.43L54.66-2.43Q53.95-1.15 51.90 0.06L51.90 0.06L51.90 0.06Q49.86 1.28 47.14 1.28L47.14 1.28L47.14 1.28Q44.42 1.28 42.82 0.51L42.82 0.51L42.82 0.51Q41.22-0.26 40.32-1.54L40.32-1.54L40.32-1.54Q38.72-3.84 38.72-8.26L38.72-8.26L38.72-28.03L26.11 0L18.18 0L13.70-28.74L6.53 0ZM83.33-10.82L83.33-10.82L83.33-10.82Q84.93-9.73 84.93-7.33L84.93-7.33L84.93-7.33Q84.93-4.93 83.71-3.39L83.71-3.39L83.71-3.39Q82.50-1.86 80.51-0.83L80.51-0.83L80.51-0.83Q76.42 1.28 72 1.28L72 1.28L72 1.28Q67.58 1.28 64.99 0.32L64.99 0.32L64.99 0.32Q62.40-0.64 60.67-2.43L60.67-2.43L60.67-2.43Q57.28-5.82 57.28-12.03L57.28-12.03L57.28-12.03Q57.28-21.70 62.53-27.58L62.53-27.58L62.53-27.58Q68.16-33.92 77.95-33.92L77.95-33.92L77.95-33.92Q84.03-33.92 87.04-31.36L87.04-31.36L87.04-31.36Q89.28-29.44 89.28-26.30L89.28-26.30L89.28-26.30Q89.28-15.04 69.82-15.04L69.82-15.04L69.82-15.04Q69.57-13.38 69.57-11.97L69.57-11.97L69.57-11.97Q69.57-9.02 70.88-7.90L70.88-7.90L70.88-7.90Q72.19-6.78 74.62-6.78L74.62-6.78L74.62-6.78Q77.06-6.78 79.65-7.90L79.65-7.90L79.65-7.90Q82.24-9.02 83.33-10.82ZM70.27-17.79L70.27-17.79L70.27-17.79Q74.82-17.79 77.44-20.61L77.44-20.61L77.44-20.61Q80.06-23.30 80.06-27.58L80.06-27.58L80.06-27.58Q80.06-29.06 79.52-29.86L79.52-29.86L79.52-29.86Q78.98-30.66 77.89-30.66L77.89-30.66L77.89-30.66Q76.80-30.66 75.87-30.24L75.87-30.24L75.87-30.24Q74.94-29.82 73.98-28.42L73.98-28.42L73.98-28.42Q71.62-25.22 70.27-17.79ZM111.62-33.92L111.62-33.92L111.62-33.92Q113.92-33.92 115.71-33.41L115.71-33.41L115.71-33.41Q115.78-33.66 115.90-34.37L115.90-34.37L116.22-36.35L116.22-36.35Q116.48-37.63 116.86-39.74L116.86-39.74L117.89-44.80L130.62-46.08L123.52-8.96L123.52-8.96Q123.46-8.58 123.46-7.94L123.46-7.94L123.46-6.91L123.46-6.91Q123.46-5.50 124.16-4.45L124.16-4.45L124.16-4.45Q124.86-3.39 126.02-3.39L126.02-3.39L126.02-3.39Q124.74-0.38 120.83 0.90L120.83 0.90L120.83 0.90Q119.49 1.28 117.60 1.28L117.60 1.28L117.60 1.28Q115.71 1.28 113.98 0.29L113.98 0.29L113.98 0.29Q112.26-0.70 111.74-2.37L111.74-2.37L111.74-2.37Q110.72-0.70 108.67 0.29L108.67 0.29L108.67 0.29Q106.62 1.28 103.65 1.28L103.65 1.28L103.65 1.28Q100.67 1.28 98.21 0.51L98.21 0.51L98.21 0.51Q95.74-0.26 94.21-1.92L94.21-1.92L94.21-1.92Q91.39-5.18 91.39-12.61L91.39-12.61L91.39-12.61Q91.39-22.21 97.02-28.03L97.02-28.03L97.02-28.03Q102.66-33.92 111.62-33.92ZM111.17-30.08L111.17-30.08L111.17-30.08Q108.80-30.08 107.52-27.52L107.52-27.52L107.52-27.52Q106.24-24.96 104.93-18.62L104.93-18.62L104.93-18.62Q103.62-12.29 103.62-6.59L103.62-6.59L103.62-6.59Q103.62-2.69 105.92-2.69L105.92-2.69L105.92-2.69Q107.97-2.69 109.41-4.74L109.41-4.74L109.41-4.74Q110.85-6.78 111.42-10.18L111.42-10.18L114.88-28.93L114.88-28.93Q113.54-30.08 111.17-30.08ZM146.82-3.52L146.82-3.52L146.82-3.52Q144.83 1.28 138.50 1.28L138.50 1.28L138.50 1.28Q135.23 1.28 133.18-0.96L133.18-0.96L133.18-0.96Q131.46-2.94 131.46-4.93L131.46-4.93L131.46-4.93Q131.46-10.11 133.82-20.22L133.82-20.22L136.19-32.64L149.18-33.92L145.28-13.70L145.28-13.70Q144.19-8.96 144.19-7.30L144.19-7.30L144.19-7.30Q144.19-3.65 146.82-3.52ZM137.34-41.54L137.34-41.54L137.34-41.54Q137.34-44.03 139.42-45.38L139.42-45.38L139.42-45.38Q141.50-46.72 144.51-46.72L144.51-46.72L144.51-46.72Q147.52-46.72 149.34-45.38L149.34-45.38L149.34-45.38Q151.17-44.03 151.17-41.54L151.17-41.54L151.17-41.54Q151.17-39.04 149.15-37.76L149.15-37.76L149.15-37.76Q147.14-36.48 144.13-36.48L144.13-36.48L144.13-36.48Q141.12-36.48 139.23-37.76L139.23-37.76L139.23-37.76Q137.34-39.04 137.34-41.54ZM151.62-0.32L151.62-0.32L159.68-42.24L159.68-42.24Q167.23-42.88 172.10-42.88L172.10-42.88L172.10-42.88Q176.96-42.88 180.10-42.46L180.10-42.46L180.10-42.46Q183.23-42.05 185.34-40.96L185.34-40.96L185.34-40.96Q189.57-38.91 189.57-33.28L189.57-33.28L189.57-33.28Q189.57-30.02 186.75-27.26L186.75-27.26L186.75-27.26Q184.13-24.77 181.25-24.19L181.25-24.19L181.25-24.19Q184.32-23.68 186.50-21.38L186.50-21.38L186.50-21.38Q188.80-18.94 188.80-15.17L188.80-15.17L188.80-15.17Q188.80-7.87 183.36-3.62L183.36-3.62L183.36-3.62Q177.92 0.64 167.23 0.64L167.23 0.64L167.23 0.64Q159.87 0.64 151.62-0.32ZM169.02-20.61L165.82-4.03L165.82-4.03Q166.40-3.97 166.53-3.97L166.53-3.97L167.10-3.97L167.10-3.97Q172.35-3.97 174.59-7.42L174.59-7.42L174.59-7.42Q176.26-10.11 176.26-15.04L176.26-15.04L176.26-15.04Q176.26-17.66 174.56-19.07L174.56-19.07L174.56-19.07Q172.86-20.48 169.02-20.61L169.02-20.61ZM178.75-33.22L178.75-33.22L178.75-33.22Q178.75-38.53 173.63-38.53L173.63-38.53L173.06-38.53L173.06-38.53Q172.80-38.53 172.42-38.46L172.42-38.46L169.86-24.96L170.50-24.96L170.50-24.96Q178.75-25.15 178.75-33.22ZM213.06-17.98L213.06-17.98L213.06-17.98Q215.36-22.08 215.36-26.24L215.36-26.24L215.36-26.24Q215.36-28.99 213.38-28.99L213.38-28.99L213.38-28.99Q211.84-28.99 210.24-26.37L210.24-26.37L210.24-26.37Q208.58-23.74 208.06-20.35L208.06-20.35L204.74 0L191.49 1.28L198.02-32.64L208.58-33.92L207.42-27.46L207.42-27.46Q210.56-33.92 217.60-33.92L217.60-33.92L217.60-33.92Q221.31-33.92 223.33-32L223.33-32L223.33-32Q225.34-30.08 225.34-26.14L225.34-26.14L225.34-26.14Q225.34-22.21 222.75-19.71L222.75-19.71L222.75-19.71Q220.16-17.22 215.74-17.22L215.74-17.22L215.74-17.22Q213.82-17.22 213.06-17.98ZM241.73-3.52L241.73-3.52L241.73-3.52Q239.74 1.28 233.41 1.28L233.41 1.28L233.41 1.28Q230.14 1.28 228.10-0.96L228.10-0.96L228.10-0.96Q226.37-2.94 226.37-4.93L226.37-4.93L226.37-4.93Q226.37-10.11 228.74-20.22L228.74-20.22L231.10-32.64L244.10-33.92L240.19-13.70L240.19-13.70Q239.10-8.96 239.10-7.30L239.10-7.30L239.10-7.30Q239.10-3.65 241.73-3.52ZM232.26-41.54L232.26-41.54L232.26-41.54Q232.26-44.03 234.34-45.38L234.34-45.38L234.34-45.38Q236.42-46.72 239.42-46.72L239.42-46.72L239.42-46.72Q242.43-46.72 244.26-45.38L244.26-45.38L244.26-45.38Q246.08-44.03 246.08-41.54L246.08-41.54L246.08-41.54Q246.08-39.04 244.06-37.76L244.06-37.76L244.06-37.76Q242.05-36.48 239.04-36.48L239.04-36.48L239.04-36.48Q236.03-36.48 234.14-37.76L234.14-37.76L234.14-37.76Q232.26-39.04 232.26-41.54ZM267.33-33.92L267.33-33.92L267.33-33.92Q269.63-33.92 271.42-33.41L271.42-33.41L271.42-33.41Q271.49-33.66 271.62-34.37L271.62-34.37L271.94-36.35L271.94-36.35Q272.19-37.63 272.58-39.74L272.58-39.74L273.60-44.80L286.34-46.08L279.23-8.96L279.23-8.96Q279.17-8.58 279.17-7.94L279.17-7.94L279.17-6.91L279.17-6.91Q279.17-5.50 279.87-4.45L279.87-4.45L279.87-4.45Q280.58-3.39 281.73-3.39L281.73-3.39L281.73-3.39Q280.45-0.38 276.54 0.90L276.54 0.90L276.54 0.90Q275.20 1.28 273.31 1.28L273.31 1.28L273.31 1.28Q271.42 1.28 269.70 0.29L269.70 0.29L269.70 0.29Q267.97-0.70 267.46-2.37L267.46-2.37L267.46-2.37Q266.43-0.70 264.38 0.29L264.38 0.29L264.38 0.29Q262.34 1.28 259.36 1.28L259.36 1.28L259.36 1.28Q256.38 1.28 253.92 0.51L253.92 0.51L253.92 0.51Q251.46-0.26 249.92-1.92L249.92-1.92L249.92-1.92Q247.10-5.18 247.10-12.61L247.10-12.61L247.10-12.61Q247.10-22.21 252.74-28.03L252.74-28.03L252.74-28.03Q258.37-33.92 267.33-33.92ZM266.88-30.08L266.88-30.08L266.88-30.08Q264.51-30.08 263.23-27.52L263.23-27.52L263.23-27.52Q261.95-24.96 260.64-18.62L260.64-18.62L260.64-18.62Q259.33-12.29 259.33-6.59L259.33-6.59L259.33-6.59Q259.33-2.69 261.63-2.69L261.63-2.69L261.63-2.69Q263.68-2.69 265.12-4.74L265.12-4.74L265.12-4.74Q266.56-6.78 267.14-10.18L267.14-10.18L270.59-28.93L270.59-28.93Q269.25-30.08 266.88-30.08ZM291.71-26.75L291.71-26.75L291.71-26.75Q293.89-29.82 297.18-31.87L297.18-31.87L297.18-31.87Q300.48-33.92 304.51-33.92L304.51-33.92L304.51-33.92Q308.54-33.92 310.46-32.64L310.46-32.64L323.01-33.92L318.66-9.34L318.66-9.34Q316.42 3.20 311.68 8.13L311.68 8.13L311.68 8.13Q307.14 12.80 298.30 12.80L298.30 12.80L298.30 12.80Q291.58 12.80 287.74 10.69L287.74 10.69L287.74 10.69Q283.90 8.58 283.90 5.06L283.90 5.06L283.90 5.06Q283.90 2.43 285.89 0.93L285.89 0.93L285.89 0.93Q287.87-0.58 290.94-0.58L290.94-0.58L290.94-0.58Q293.63-0.58 295.68 0.64L295.68 0.64L295.68 0.64Q296.90 1.28 297.47 2.18L297.47 2.18L297.47 2.18Q296.00 3.46 296.00 5.57L296.00 5.57L296.00 5.57Q296.00 8.32 298.56 8.32L298.56 8.32L298.56 8.32Q302.85 8.32 305.28-1.79L305.28-1.79L305.28-1.79Q305.98-4.54 306.56-7.30L306.56-7.30L306.56-7.30Q303.68-3.78 297.15-3.78L297.15-3.78L297.15-3.78Q292.61-3.78 289.98-5.95L289.98-5.95L289.98-5.95Q287.36-8.13 287.36-13.25L287.36-13.25L287.36-13.25Q287.36-16.45 288.45-20.06L288.45-20.06L288.45-20.06Q289.54-23.68 291.71-26.75ZM300.03-13.06L300.03-13.06L300.03-13.06Q300.03-8.70 302.27-8.70L302.27-8.70L302.27-8.70Q303.81-8.70 305.28-10.37L305.28-10.37L305.28-10.37Q306.43-11.71 306.88-13.70L306.88-13.70L310.14-30.14L310.14-30.14Q309.82-30.21 309.50-30.34L309.50-30.34L309.50-30.34Q308.86-30.59 308.03-30.59L308.03-30.59L308.03-30.59Q304.13-30.59 301.82-24.19L301.82-24.19L301.82-24.19Q300.03-19.20 300.03-13.06ZM351.42-10.82L351.42-10.82L351.42-10.82Q353.02-9.73 353.02-7.33L353.02-7.33L353.02-7.33Q353.02-4.93 351.81-3.39L351.81-3.39L351.81-3.39Q350.59-1.86 348.61-0.83L348.61-0.83L348.61-0.83Q344.51 1.28 340.10 1.28L340.10 1.28L340.10 1.28Q335.68 1.28 333.09 0.32L333.09 0.32L333.09 0.32Q330.50-0.64 328.77-2.43L328.77-2.43L328.77-2.43Q325.38-5.82 325.38-12.03L325.38-12.03L325.38-12.03Q325.38-21.70 330.62-27.58L330.62-27.58L330.62-27.58Q336.26-33.92 346.05-33.92L346.05-33.92L346.05-33.92Q352.13-33.92 355.14-31.36L355.14-31.36L355.14-31.36Q357.38-29.44 357.38-26.30L357.38-26.30L357.38-26.30Q357.38-15.04 337.92-15.04L337.92-15.04L337.92-15.04Q337.66-13.38 337.66-11.97L337.66-11.97L337.66-11.97Q337.66-9.02 338.98-7.90L338.98-7.90L338.98-7.90Q340.29-6.78 342.72-6.78L342.72-6.78L342.72-6.78Q345.15-6.78 347.74-7.90L347.74-7.90L347.74-7.90Q350.34-9.02 351.42-10.82ZM338.37-17.79L338.37-17.79L338.37-17.79Q342.91-17.79 345.54-20.61L345.54-20.61L345.54-20.61Q348.16-23.30 348.16-27.58L348.16-27.58L348.16-27.58Q348.16-29.06 347.62-29.86L347.62-29.86L347.62-29.86Q347.07-30.66 345.98-30.66L345.98-30.66L345.98-30.66Q344.90-30.66 343.97-30.24L343.97-30.24L343.97-30.24Q343.04-29.82 342.08-28.42L342.08-28.42L342.08-28.42Q339.71-25.22 338.37-17.79Z" fill="#eb6c6c"></path></g></g><style>text {
  font-size: 64px;
  font-family: Arial Black;
  dominant-baseline: central;
  text-anchor: middle;
}</style></svg>